<mxfile host="app.diagrams.net" modified="2022-07-28T07:23:17.399Z" agent="5.0 (Windows NT 10.0; Win64; x64) AppleWebKit/537.36 (KHTML, like Gecko) Chrome/103.0.0.0 Safari/537.36" etag="wVzaDQYkqJJs9YSfTSaV" version="20.2.1" type="github">
  <diagram id="PrcVy_qIDNZo11KBOe-M" name="PB仓库打包文件测试">
    <mxGraphModel dx="1422" dy="882" grid="1" gridSize="10" guides="1" tooltips="1" connect="1" arrows="1" fold="1" page="1" pageScale="1" pageWidth="1100" pageHeight="850" math="0" shadow="0">
      <root>
        <mxCell id="0" />
        <mxCell id="1" parent="0" />
        <object placeholders="1" c4Name="ad-show-proto" c4Type="ContainerDiagramTitle" c4Description="播放引擎原PB包" label="&lt;font style=&quot;font-size: 16px&quot;&gt;&lt;b&gt;&lt;div style=&quot;text-align: left&quot;&gt;%c4Name%&lt;/div&gt;&lt;/b&gt;&lt;/font&gt;&lt;div style=&quot;text-align: left&quot;&gt;%c4Description%&lt;/div&gt;" id="fGhr1Yjxo4mzfRU7f8-M-2">
          <mxCell style="text;html=1;strokeColor=#d6b656;fillColor=#fff2cc;align=left;verticalAlign=top;whiteSpace=wrap;rounded=0;metaEdit=1;allowArrows=0;resizable=1;rotatable=0;connectable=0;recursiveResize=0;expand=0;pointerEvents=0;points=[[0.25,0,0],[0.5,0,0],[0.75,0,0],[1,0.25,0],[1,0.5,0],[1,0.75,0],[0.75,1,0],[0.5,1,0],[0.25,1,0],[0,0.75,0],[0,0.5,0],[0,0.25,0]];" vertex="1" parent="1">
            <mxGeometry x="170" y="340" width="220" height="40" as="geometry" />
          </mxCell>
        </object>
        <object placeholders="1" c4Name="ad-show-proto-test" c4Type="ContainerDiagramTitle" c4Description="播放引擎公共仓库PB包" label="&lt;font style=&quot;font-size: 16px&quot;&gt;&lt;b&gt;&lt;div style=&quot;text-align: left&quot;&gt;%c4Name%&lt;/div&gt;&lt;/b&gt;&lt;/font&gt;&lt;div style=&quot;text-align: left&quot;&gt;%c4Description%&lt;/div&gt;" id="fGhr1Yjxo4mzfRU7f8-M-3">
          <mxCell style="text;html=1;strokeColor=#82b366;fillColor=#d5e8d4;align=left;verticalAlign=top;whiteSpace=wrap;rounded=0;metaEdit=1;allowArrows=0;resizable=1;rotatable=0;connectable=0;recursiveResize=0;expand=0;pointerEvents=0;points=[[0.25,0,0],[0.5,0,0],[0.75,0,0],[1,0.25,0],[1,0.5,0],[1,0.75,0],[0.75,1,0],[0.5,1,0],[0.25,1,0],[0,0.75,0],[0,0.5,0],[0,0.25,0]];" vertex="1" parent="1">
            <mxGeometry x="550" y="340" width="240" height="40" as="geometry" />
          </mxCell>
        </object>
        <object placeholders="1" c4Name="ad-show-brand-limit-service" c4Type="Component" c4Technology="Dubbo Srping" c4Description="品牌在线广告处理服务" label="&lt;font style=&quot;font-size: 16px&quot;&gt;&lt;b&gt;%c4Name%&lt;/b&gt;&lt;/font&gt;&lt;div&gt;[%c4Type%: %c4Technology%]&lt;/div&gt;&lt;br&gt;&lt;div&gt;&lt;font style=&quot;font-size: 11px&quot;&gt;%c4Description%&lt;/font&gt;&lt;/div&gt;" id="fGhr1Yjxo4mzfRU7f8-M-4">
          <mxCell style="rounded=1;whiteSpace=wrap;html=1;labelBackgroundColor=none;fillColor=#63BEF2;fontColor=#ffffff;align=center;arcSize=6;strokeColor=#2086C9;metaEdit=1;resizable=0;points=[[0.25,0,0],[0.5,0,0],[0.75,0,0],[1,0.25,0],[1,0.5,0],[1,0.75,0],[0.75,1,0],[0.5,1,0],[0.25,1,0],[0,0.75,0],[0,0.5,0],[0,0.25,0]];" vertex="1" parent="1">
            <mxGeometry x="330" y="140" width="240" height="120" as="geometry" />
          </mxCell>
        </object>
        <object placeholders="1" c4Type="Relationship" id="fGhr1Yjxo4mzfRU7f8-M-6">
          <mxCell style="endArrow=blockThin;html=1;fontSize=10;fontColor=#404040;strokeWidth=1;endFill=1;strokeColor=#828282;elbow=vertical;metaEdit=1;endSize=14;startSize=14;jumpStyle=arc;jumpSize=16;rounded=0;edgeStyle=orthogonalEdgeStyle;entryX=0;entryY=0.5;entryDx=0;entryDy=0;entryPerimeter=0;startArrow=none;" edge="1" parent="1" target="fGhr1Yjxo4mzfRU7f8-M-4" source="fGhr1Yjxo4mzfRU7f8-M-17">
            <mxGeometry width="240" relative="1" as="geometry">
              <mxPoint x="270" y="340" as="sourcePoint" />
              <mxPoint x="290" y="220" as="targetPoint" />
              <Array as="points">
                <mxPoint x="270" y="200" />
              </Array>
            </mxGeometry>
          </mxCell>
        </object>
        <object placeholders="1" c4Type="Relationship" id="fGhr1Yjxo4mzfRU7f8-M-7">
          <mxCell style="endArrow=blockThin;html=1;fontSize=10;fontColor=#404040;strokeWidth=1;endFill=1;strokeColor=#828282;elbow=vertical;metaEdit=1;endSize=14;startSize=14;jumpStyle=arc;jumpSize=16;rounded=0;edgeStyle=orthogonalEdgeStyle;entryX=1;entryY=0.5;entryDx=0;entryDy=0;entryPerimeter=0;" edge="1" parent="1" target="fGhr1Yjxo4mzfRU7f8-M-4">
            <mxGeometry width="240" relative="1" as="geometry">
              <mxPoint x="700" y="340" as="sourcePoint" />
              <mxPoint x="810" y="180" as="targetPoint" />
              <Array as="points">
                <mxPoint x="680" y="340" />
                <mxPoint x="680" y="200" />
              </Array>
            </mxGeometry>
          </mxCell>
        </object>
        <mxCell id="fGhr1Yjxo4mzfRU7f8-M-17" value="" style="shape=image;html=1;verticalAlign=top;verticalLabelPosition=bottom;labelBackgroundColor=#ffffff;imageAspect=0;aspect=fixed;image=https://cdn3.iconfinder.com/data/icons/flat-actions-icons-9/792/Close_Icon-128.png" vertex="1" parent="1">
          <mxGeometry x="250" y="230" width="40" height="40" as="geometry" />
        </mxCell>
        <mxCell id="fGhr1Yjxo4mzfRU7f8-M-20" value="" style="endArrow=none;html=1;fontSize=10;fontColor=#404040;strokeWidth=1;endFill=1;strokeColor=#828282;elbow=vertical;metaEdit=1;endSize=14;startSize=14;jumpStyle=arc;jumpSize=16;rounded=0;edgeStyle=orthogonalEdgeStyle;" edge="1" parent="1">
          <mxGeometry width="240" relative="1" as="geometry">
            <mxPoint x="270" y="340" as="sourcePoint" />
            <mxPoint x="270" y="280" as="targetPoint" />
            <Array as="points" />
          </mxGeometry>
        </mxCell>
        <mxCell id="fGhr1Yjxo4mzfRU7f8-M-22" value="" style="shape=image;html=1;verticalAlign=top;verticalLabelPosition=bottom;labelBackgroundColor=#ffffff;imageAspect=0;aspect=fixed;image=https://cdn4.iconfinder.com/data/icons/web-ui-color/128/Checkmark-128.png" vertex="1" parent="1">
          <mxGeometry x="655" y="220" width="50" height="50" as="geometry" />
        </mxCell>
      </root>
    </mxGraphModel>
  </diagram>
</mxfile>
